<svg width="448" height="444" viewBox="0 0 448 444" fill="none" xmlns="http://www.w3.org/2000/svg">
<path d="M151.402 430.35C131.145 429.349 65.4854 463.999 28.9635 425.744C0.224957 395.5 20.5814 368.362 19.7831 363.555C18.2863 354.642 89.3344 317.088 94.5233 309.678C106.797 292.353 115.478 272.524 119.769 251.695C123.362 234.57 123.461 215.142 112.485 201.623C103.404 190.407 88.8354 185.7 75.2645 180.893C58.4005 174.985 41.4368 167.975 28.6641 155.657C11.7004 139.334 4.91492 113.296 19.8829 93.3679C35.5494 72.5381 63.3899 64.827 77.8589 42.8956C91.2303 22.6667 100.111 2.53785 127.353 0.134404C135.835 -0.5666 144.816 1.43627 151.202 7.0443C161.779 16.2575 163.576 31.4793 171.359 42.6953C179.641 54.6124 192.813 63.3249 207.082 66.0288C225.343 69.4336 243.904 63.6253 261.766 58.9186C285.116 52.7097 309.264 48.2032 333.312 50.3062C357.66 52.5094 383.705 62.5237 399.371 82.252C405.758 90.2634 409.949 100.378 409.45 110.693C408.452 133.525 388.395 150.45 387.097 173.483C386.499 184.799 391.089 196.415 399.271 204.227C410.148 214.541 426.214 218.147 436.791 228.762C448.666 240.679 450.961 261.008 442.08 275.328C434.795 287.145 421.723 293.855 409.45 300.164C386.998 311.58 362.051 326.602 357.86 351.437C355.166 367.46 361.851 384.685 355.565 399.707C350.975 410.822 340.098 418.033 329.221 423.14C316.049 429.249 301.58 433.154 287.111 431.652C265.158 429.349 245.401 414.728 223.348 415.329C201.395 415.93 178.943 431.452 159.185 422.038C145.414 415.529 139.427 399.506 134.637 384.985L151.402 430.35Z" fill="white"/>
<path d="M39.742 15.2558C34.8525 24.469 25.5723 30.3774 17.2901 36.6865C9.00778 43.0956 0.825278 51.4075 0.0269856 61.8225C-0.272374 66.2288 1.92293 71.8368 6.41333 71.9369C8.70842 72.0371 10.8039 70.6351 12.6001 69.1329C21.2815 62.0227 28.4662 52.7094 38.5446 47.8024C41.9373 46.2001 45.5297 44.9984 48.623 42.9955C55.0094 38.6893 58.3023 30.8782 59.6993 23.2673C60.5974 18.3602 60.5974 12.4518 56.606 9.44747C53.6124 7.14417 49.122 7.54475 45.829 9.44747C42.5361 11.3502 40.1412 14.4546 37.9459 17.6592L39.742 15.2558Z" fill="white"/>
<path d="M319.245 26.2723C339.801 33.4827 363.85 22.7673 385.204 27.9748C398.875 31.2795 409.452 40.693 416.537 51.2081C418.832 54.6129 420.928 58.2181 424.021 61.1222C427.214 63.9263 431.904 65.9291 436.395 65.128C437.792 64.8276 439.089 64.3268 439.987 63.3254C441.584 61.5228 440.885 58.819 439.289 57.0164C437.692 55.2138 435.397 53.9119 433.501 52.3096C424.221 44.5986 425.019 31.2795 416.936 22.6672C409.951 15.1564 397.678 12.9533 386.501 13.5541C375.325 14.155 364.548 17.2594 353.472 18.2609C344.89 19.062 336.209 18.7616 327.528 18.4612C324.235 18.361 320.443 18.4612 318.447 20.6643C316.451 22.8675 319.046 27.1736 321.94 25.8718L319.245 26.2723Z" fill="white"/>
</svg>
